<svg width="127" height="46" viewBox="0 0 127 46" fill="none" xmlns="http://www.w3.org/2000/svg">
<path d="M77.1266 9.84461C77.0968 10.599 77.0372 11.2026 76.9478 11.6703C76.8584 12.1381 76.6945 12.4851 76.471 12.7115H79.6298V8.78831H77.1564L77.1266 9.82951V9.84461ZM82.0883 12.7265V15.4727H80.6877V14.0242H75.726V15.4727H74.3254V12.7265H74.6234C75.0257 12.7115 75.3088 12.4399 75.4578 11.9419C75.6068 11.4289 75.7111 10.6895 75.7558 9.75401L75.8452 7.52091H81.1347V12.7416H82.0883V12.7265ZM66.9797 7.50581H68.4846V10.1463H71.7179V7.50581H73.2228V14.0091H71.7179V11.444H68.4846V14.0091H66.9797V7.50581ZM62.0627 12.7869C62.614 12.7869 63.0759 12.6058 63.4335 12.2286C63.7911 11.8514 63.9699 11.3685 63.9699 10.7499C63.9699 10.1313 63.7911 9.64841 63.4335 9.27121C63.0759 8.89401 62.614 8.71291 62.0627 8.71291C61.5114 8.71291 61.0495 8.89401 60.6919 9.27121C60.3343 9.64841 60.1555 10.1313 60.1555 10.7499C60.1555 11.3685 60.3343 11.8514 60.6919 12.2286C61.0495 12.6058 61.5114 12.7869 62.0627 12.7869ZM62.0627 14.0845C61.4071 14.0845 60.826 13.9487 60.3045 13.6621C59.783 13.3754 59.3807 12.9831 59.0827 12.4851C58.7996 11.9721 58.6506 11.3987 58.6506 10.7499C58.6506 10.1011 58.7996 9.54281 59.0827 9.02981C59.3807 8.53181 59.783 8.13951 60.3045 7.85281C60.826 7.56611 61.4071 7.43031 62.0627 7.43031C62.7183 7.43031 63.3143 7.56611 63.8358 7.85281C64.3573 8.13951 64.7596 8.53181 65.0576 9.02981C65.3556 9.52771 65.5046 10.1011 65.5046 10.7499C65.5046 11.3987 65.3556 11.9721 65.0576 12.4851C64.7745 12.9831 64.3573 13.3754 63.8358 13.6621C63.3143 13.9487 62.7183 14.0845 62.0627 14.0845ZM48.9209 9.72391C48.9209 10.4632 49.1742 11.0366 49.6659 11.4591C50.1725 11.8665 50.9026 12.123 51.8413 12.1984V7.24931C49.8894 7.40021 48.9209 8.21501 48.9209 9.72391ZM53.2866 12.1984C54.2551 12.123 54.9852 11.8816 55.4769 11.4742C55.9686 11.0517 56.2219 10.4632 56.2219 9.72391C56.2219 8.98451 55.9686 8.39601 55.462 7.98861C54.9703 7.58121 54.2402 7.33981 53.2866 7.26441V12.2135V12.1984ZM57.7268 9.72391C57.7268 10.8404 57.3394 11.7307 56.5646 12.3795C55.7898 13.0283 54.7021 13.3754 53.2866 13.4357V14.3411H51.8413V13.4357C50.4258 13.3603 49.3232 12.9981 48.5484 12.3644C47.7736 11.7156 47.3862 10.8404 47.3862 9.72391C47.3862 8.60731 47.7736 7.71701 48.5484 7.08331C49.3232 6.43451 50.4258 6.07241 51.8413 5.99691V5.13681H53.2866V5.99691C54.7021 6.07241 55.8047 6.43451 56.5646 7.08331C57.3394 7.73211 57.7268 8.60731 57.7268 9.72391Z" fill="#2B3888"/>
<path d="M102.963 21.2065C101.995 21.2065 101.503 21.5686 101.503 22.308C101.503 23.0473 101.965 23.4095 102.904 23.4095H104.498V21.2065H102.948H102.963ZM105.869 19.9239V26.4272H104.528V24.4657H102.829L101.518 26.4272H99.909L101.429 24.2544C100.967 24.0885 100.609 23.847 100.356 23.5151C100.117 23.168 99.998 22.7606 99.998 22.2627C99.998 21.5083 100.251 20.9349 100.773 20.5275C101.294 20.1201 102.01 19.9239 102.933 19.9239H105.884H105.869ZM91.997 19.9239H93.502V24.2092L97.048 19.9239H98.419V26.4272H96.914V22.142L93.382 26.4272H91.997V19.9239ZM90.909 21.2216H88.659V26.4423H87.154V21.2216H84.8895V19.9239H90.909V21.2216ZM77.3799 19.9239H78.8848V24.2092L82.431 19.9239H83.8018V26.4272H82.2969V22.142L78.7656 26.4272H77.3799V19.9239ZM73.0887 25.3257C73.9082 25.3257 74.3254 25.0541 74.3254 24.5109C74.3254 24.2243 74.236 24.013 74.0423 23.8772C73.8486 23.7263 73.5506 23.6509 73.1334 23.6509H71.3603V25.3257H73.0738H73.0887ZM71.3752 22.6399H72.9546C73.7294 22.6399 74.1168 22.3683 74.1168 21.8251C74.1168 21.2819 73.7294 21.0405 72.9546 21.0405H71.3752V22.655V22.6399ZM74.5936 23.0473C75.3833 23.2887 75.7856 23.8169 75.7856 24.6015C75.7856 25.1899 75.5621 25.6426 75.13 25.9595C74.6979 26.2763 74.0572 26.4272 73.2079 26.4272H69.9299V19.9239H73.0738C73.8635 19.9239 74.4744 20.0748 74.9214 20.3615C75.3684 20.6482 75.577 21.0707 75.577 21.5988C75.577 21.9307 75.4876 22.2174 75.3088 22.4589C75.1449 22.7003 74.9065 22.8964 74.5936 23.0322V23.0473ZM67.1138 23.0473C67.5161 23.168 67.829 23.3491 68.0376 23.6056C68.2611 23.8621 68.3803 24.1639 68.3803 24.526C68.3803 24.9183 68.2462 25.2805 67.978 25.5822C67.7098 25.884 67.3522 26.1255 66.8903 26.2914C66.4284 26.4574 65.892 26.5479 65.296 26.5479C64.8043 26.5479 64.3126 26.4876 63.8358 26.382C63.359 26.2613 62.9269 26.0953 62.5544 25.8689L62.9865 24.7373C63.2994 24.9183 63.657 25.0541 64.0444 25.1447C64.4318 25.2352 64.8341 25.2956 65.2215 25.2956C65.7281 25.2956 66.1155 25.2201 66.3986 25.0692C66.6817 24.9032 66.8307 24.692 66.8307 24.4053C66.8307 24.1488 66.7115 23.9527 66.488 23.8169C66.2645 23.6811 65.9665 23.6056 65.5642 23.6056H64.3126V22.5796H65.445C65.8175 22.5796 66.1155 22.5192 66.3241 22.3834C66.5476 22.2476 66.6519 22.0665 66.6519 21.8402C66.6519 21.6139 66.5178 21.4177 66.2645 21.2819C66.0112 21.1461 65.6536 21.0707 65.2066 21.0707C64.5659 21.0707 63.8805 21.2216 63.1802 21.5384L62.7928 20.4219C63.6421 20.0295 64.4914 19.8183 65.3407 19.8183C65.892 19.8183 66.3688 19.8937 66.8158 20.0446C67.2479 20.1955 67.5906 20.4068 67.829 20.6784C68.0823 20.95 68.2015 21.2517 68.2015 21.5988C68.2015 21.9157 68.1121 22.2023 67.9184 22.4589C67.7247 22.7003 67.4565 22.8964 67.1287 23.0322L67.1138 23.0473ZM58.3675 25.4163C58.74 25.4163 59.0827 25.3257 59.3658 25.1598C59.6638 24.9787 59.8724 24.7222 59.9916 24.4053V23.6509H58.442C57.5778 23.6509 57.1457 23.9376 57.1457 24.5109C57.1457 24.7825 57.25 25.0089 57.4735 25.1748C57.697 25.3408 57.995 25.4163 58.3824 25.4163H58.3675ZM58.5761 19.8636C59.5297 19.8636 60.2449 20.0899 60.7366 20.5577C61.2432 21.0103 61.4965 21.7044 61.4965 22.6248V26.4423H60.081V25.6577C59.9022 25.9444 59.634 26.1556 59.2913 26.3216C58.9486 26.4725 58.5463 26.5479 58.0695 26.5479C57.5927 26.5479 57.1606 26.4725 56.803 26.3065C56.4454 26.1405 56.1623 25.8991 55.9537 25.6124C55.76 25.3107 55.6706 24.9787 55.6706 24.6015C55.6706 24.013 55.8792 23.5453 56.3113 23.1982C56.7434 22.8361 57.4288 22.655 58.3377 22.655H59.9916V22.5645C59.9916 22.1118 59.8575 21.7648 59.5893 21.5233C59.3211 21.2819 58.9337 21.1612 58.3973 21.1612C58.0397 21.1612 57.6821 21.2216 57.3245 21.3272C56.9818 21.4479 56.6838 21.5988 56.4454 21.7949L55.8494 20.6935C56.1921 20.4369 56.5944 20.2408 57.0712 20.0899C57.548 19.9541 58.0397 19.8787 58.5761 19.8787V19.8636ZM51.3347 25.2201C51.886 25.2201 52.3479 25.039 52.6906 24.6618C53.0482 24.2846 53.227 23.8018 53.227 23.1831C53.227 22.5645 53.0482 22.0816 52.6906 21.7044C52.333 21.3272 51.886 21.1461 51.3347 21.1461C50.9771 21.1461 50.6493 21.2367 50.3662 21.4026C50.0831 21.5686 49.8447 21.7949 49.6808 22.1118C49.5169 22.4287 49.4275 22.7757 49.4275 23.1831C49.4275 23.5905 49.5169 23.9527 49.6808 24.2544C49.8447 24.5562 50.0831 24.7976 50.3662 24.9787C50.6493 25.1447 50.9771 25.2201 51.3347 25.2201ZM51.4986 19.8636C52.1244 19.8636 52.6757 19.9994 53.1674 20.271C53.6591 20.5426 54.0465 20.9349 54.3296 21.4479C54.6127 21.9458 54.7468 22.5343 54.7468 23.1831C54.7468 23.8319 54.6127 24.4204 54.3296 24.9334C54.0465 25.4314 53.6591 25.8237 53.1674 26.1104C52.6757 26.382 52.1244 26.5178 51.4986 26.5178C50.6344 26.5178 49.949 26.2311 49.4424 25.6426V28.7962H47.9375V19.9239H49.3679V20.784C49.6212 20.4822 49.9192 20.2408 50.2768 20.0899C50.6493 19.939 51.0516 19.8636 51.4986 19.8636Z" fill="#2B3888"/>
<path d="M120.113 31.5876C119.458 31.5876 118.966 31.4367 118.623 31.135C118.281 30.8332 118.117 30.3805 118.102 29.7921H119.1C119.1 30.0787 119.189 30.3202 119.368 30.4861C119.547 30.6521 119.785 30.7427 120.098 30.7427C120.411 30.7427 120.65 30.6521 120.814 30.4861C120.992 30.3202 121.097 30.0787 121.097 29.7921H122.125C122.125 30.3805 121.946 30.8181 121.588 31.135C121.246 31.4367 120.739 31.5876 120.098 31.5876H120.113ZM116.999 32.3572H118.504V36.6424L122.05 32.3572H123.421V38.8605H121.916V34.5752L118.385 38.8605H116.999V32.3572ZM108.551 32.3572H110.056V36.6424L113.602 32.3572H114.973V38.8605H113.468V34.5752L109.937 38.8605H108.551V32.3572ZM103.619 37.6383C104.17 37.6383 104.632 37.4572 104.975 37.08C105.332 36.7028 105.511 36.2199 105.511 35.6013C105.511 34.9826 105.332 34.4998 104.975 34.1226C104.617 33.7453 104.17 33.5643 103.619 33.5643C103.261 33.5643 102.934 33.6548 102.65 33.8208C102.367 33.9868 102.129 34.2131 101.965 34.53C101.801 34.8468 101.712 35.1939 101.712 35.6013C101.712 36.0087 101.801 36.3708 101.965 36.6726C102.129 36.9744 102.367 37.2158 102.65 37.3969C102.934 37.5628 103.261 37.6383 103.619 37.6383ZM103.783 32.2817C104.409 32.2817 104.96 32.4175 105.452 32.6891C105.943 32.9607 106.331 33.353 106.614 33.866C106.897 34.364 107.031 34.9524 107.031 35.6013C107.031 36.2501 106.897 36.8386 106.614 37.3516C106.331 37.8495 105.943 38.2418 105.452 38.5285C104.96 38.8001 104.409 38.9359 103.783 38.9359C102.919 38.9359 102.233 38.6492 101.727 38.0608V41.2143H100.222V32.3421H101.652V33.2021C101.905 32.9004 102.203 32.6589 102.561 32.5081C102.934 32.3572 103.336 32.2817 103.783 32.2817ZM95.305 37.6383C95.856 37.6383 96.318 37.4572 96.676 37.08C97.033 36.7028 97.212 36.2199 97.212 35.6013C97.212 34.9826 97.033 34.4998 96.676 34.1226C96.318 33.7453 95.856 33.5643 95.305 33.5643C94.753 33.5643 94.292 33.7453 93.934 34.1226C93.576 34.4998 93.398 34.9826 93.398 35.6013C93.398 36.2199 93.576 36.7028 93.934 37.08C94.292 37.4572 94.753 37.6383 95.305 37.6383ZM95.305 38.9359C94.649 38.9359 94.068 38.8001 93.547 38.5134C93.025 38.2267 92.623 37.8344 92.325 37.3365C92.042 36.8235 91.893 36.2501 91.893 35.6013C91.893 34.9524 92.042 34.3942 92.325 33.8811C92.623 33.3832 93.025 32.9909 93.547 32.7042C94.068 32.4175 94.649 32.2817 95.305 32.2817C95.96 32.2817 96.556 32.4175 97.078 32.7042C97.599 32.9909 98.002 33.3832 98.3 33.8811C98.598 34.3791 98.747 34.9524 98.747 35.6013C98.747 36.2501 98.598 36.8235 98.3 37.3365C98.017 37.8344 97.599 38.2267 97.078 38.5134C96.556 38.8001 95.96 38.9359 95.305 38.9359ZM91.639 33.6397H89.389V38.8605H87.885V33.6397H85.62V32.3421H91.639V33.6397ZM78.1101 32.3421H79.615V36.6273L83.1612 32.3421H84.532V38.8454H83.0271V34.5601L79.4958 38.8454H78.1101V32.3421ZM73.1782 37.6232C73.7295 37.6232 74.1914 37.4421 74.5341 37.0649C74.8917 36.6877 75.0705 36.2048 75.0705 35.5862C75.0705 34.9675 74.8917 34.4847 74.5341 34.1075C74.1765 33.7302 73.7295 33.5492 73.1782 33.5492C72.8206 33.5492 72.4928 33.6397 72.2097 33.8057C71.9266 33.9717 71.6882 34.198 71.5243 34.5149C71.3604 34.8317 71.271 35.1788 71.271 35.5862C71.271 35.9936 71.3604 36.3557 71.5243 36.6575C71.6882 36.9593 71.9266 37.2007 72.2097 37.3818C72.4928 37.5477 72.8206 37.6232 73.1782 37.6232ZM73.3421 32.2666C73.9679 32.2666 74.5192 32.4024 75.0109 32.674C75.5026 32.9456 75.89 33.3379 76.1731 33.851C76.4562 34.3489 76.5903 34.9374 76.5903 35.5862C76.5903 36.235 76.4562 36.8235 76.1731 37.3365C75.89 37.8344 75.5026 38.2267 75.0109 38.5134C74.5192 38.785 73.9679 38.9208 73.3421 38.9208C72.4779 38.9208 71.7925 38.6341 71.2859 38.0457V41.1992H69.781V32.327H71.2114V33.1871C71.4647 32.8853 71.7627 32.6439 72.1203 32.493C72.4928 32.3421 72.8951 32.2666 73.3421 32.2666ZM64.8491 37.6232C65.4004 37.6232 65.8623 37.4421 66.205 37.0649C66.5626 36.6877 66.7414 36.2048 66.7414 35.5862C66.7414 34.9675 66.5626 34.4847 66.205 34.1075C65.8474 33.7302 65.4004 33.5492 64.8491 33.5492C64.4915 33.5492 64.1637 33.6397 63.8806 33.8057C63.5975 33.9717 63.3591 34.198 63.1952 34.5149C63.0313 34.8317 62.9419 35.1788 62.9419 35.5862C62.9419 35.9936 63.0313 36.3557 63.1952 36.6575C63.3591 36.9593 63.5975 37.2007 63.8806 37.3818C64.1637 37.5477 64.4915 37.6232 64.8491 37.6232ZM65.013 32.2666C65.6388 32.2666 66.1901 32.4024 66.6818 32.674C67.1735 32.9456 67.5609 33.3379 67.844 33.851C68.1271 34.3489 68.2612 34.9374 68.2612 35.5862C68.2612 36.235 68.1271 36.8235 67.844 37.3365C67.5609 37.8344 67.1735 38.2267 66.6818 38.5134C66.1901 38.785 65.6388 38.9208 65.013 38.9208C64.1488 38.9208 63.4634 38.6341 62.9568 38.0457V41.1992H61.4519V32.327H62.8823V33.1871C63.1356 32.8853 63.4336 32.6439 63.7912 32.493C64.1637 32.3421 64.566 32.2666 65.013 32.2666ZM56.5647 33.4888C56.0879 33.4888 55.6707 33.6397 55.3429 33.9264C55.0151 34.2131 54.8065 34.5903 54.7469 35.0732H58.3974C58.3378 34.6054 58.1441 34.2131 57.8014 33.9264C57.4736 33.6397 57.0564 33.4888 56.5796 33.4888H56.5647ZM59.8129 35.6314C59.8129 35.7371 59.8129 35.888 59.7831 36.0841H54.7469C54.8363 36.567 55.0598 36.9442 55.4323 37.2309C55.8048 37.5025 56.2816 37.6383 56.8329 37.6383C57.5332 37.6383 58.1143 37.3968 58.5762 36.9291L59.3808 37.8646C59.0977 38.2116 58.7252 38.4832 58.2931 38.6492C57.8461 38.8303 57.3544 38.9208 56.8031 38.9208C56.1028 38.9208 55.477 38.785 54.9406 38.4983C54.4042 38.2116 53.987 37.8193 53.689 37.3214C53.4059 36.8084 53.2569 36.235 53.2569 35.5862C53.2569 34.9374 53.391 34.3791 53.6741 33.8811C53.9572 33.3681 54.3595 32.9758 54.8661 32.6891C55.3727 32.4024 55.9389 32.2666 56.5796 32.2666C57.2203 32.2666 57.7567 32.4024 58.2484 32.6891C58.7401 32.9607 59.1275 33.353 59.4106 33.866C59.6937 34.364 59.8278 34.9525 59.8278 35.6164L59.8129 35.6314ZM52.9887 33.6397H50.7388V38.8605H49.2339V33.6397H46.9691V32.3421H52.9887V33.6397Z" fill="#2B3888"/>
<path d="M38.2824 21.7346L29.8788 13.2244C29.7298 13.0736 29.5212 12.9679 29.3126 12.9227C29.104 12.8774 28.8805 12.9076 28.6719 12.983C28.4633 13.0736 28.2994 13.2094 28.1802 13.3904C28.061 13.5715 27.9865 13.7978 27.9865 14.0091V32.6137C27.9865 32.84 28.0461 33.0512 28.1802 33.2323C28.2994 33.4134 28.4782 33.5643 28.6719 33.6397C28.8805 33.7302 29.104 33.7453 29.3126 33.7001C29.5212 33.6548 29.7298 33.5492 29.8788 33.3983L38.2824 24.8881C38.491 24.6769 38.6549 24.4355 38.7592 24.1639C38.8635 23.8923 38.9231 23.6056 38.9231 23.3038C38.9231 23.002 38.8635 22.7153 38.7592 22.4437C38.64 22.1721 38.4761 21.9307 38.2824 21.7195V21.7346ZM3.53561 24.9183L11.9392 33.4285C12.0882 33.5793 12.2968 33.685 12.5054 33.7302C12.714 33.7755 12.9375 33.7453 13.1461 33.6699C13.3547 33.5793 13.5186 33.4435 13.6378 33.2625C13.757 33.0814 13.8315 32.8551 13.8315 32.6438V14.0392C13.8315 13.8129 13.7719 13.6017 13.6378 13.4206C13.5037 13.2395 13.3398 13.0886 13.1461 13.0132C12.9524 12.9378 12.714 12.9076 12.5054 12.9528C12.2968 12.9981 12.0882 13.1037 11.9392 13.2546L3.53561 21.7647C3.11841 22.1872 2.88 22.7606 2.88 23.3491C2.88 23.9375 3.11841 24.5109 3.52071 24.9334L3.53561 24.9183ZM16.141 8.98452L19.3445 5.74042C19.7617 5.31792 20.3279 5.07642 20.909 5.07642C21.4901 5.07642 22.0563 5.31792 22.4735 5.74042L25.6621 8.96942C25.7664 9.07502 25.8558 9.19571 25.9005 9.33151C25.9601 9.46731 25.9899 9.61822 25.9899 9.76912V36.9291C25.9899 37.08 25.9601 37.2158 25.9005 37.3667C25.8409 37.5175 25.7664 37.6232 25.6621 37.7288L22.4735 40.9578C22.0563 41.3803 21.4901 41.6217 20.909 41.6217C20.3279 41.6217 19.7617 41.3803 19.3445 40.9578L16.1559 37.7137C16.0516 37.6081 15.9771 37.4874 15.9175 37.3516C15.8579 37.2158 15.8281 37.0649 15.8281 36.9291V9.75401C15.8132 9.60311 15.8281 9.45222 15.9026 9.31642C15.9622 9.18062 16.0367 9.05992 16.141 8.95432V8.98452Z" fill="#FF6224"/>
</svg>
