<svg width="168" height="89" viewBox="0 0 168 89" fill="none" xmlns="http://www.w3.org/2000/svg">
<g clip-path="url(#clip0)">
<path d="M57.6316 27.4217H68.1154V30.7875H63.1282V54.5647H57.6323V27.4217H57.6316Z" fill="#006FBA"/>
<path d="M74.0503 44.3666L74.9927 30.7862H75.3084L76.2494 44.3666H74.0503ZM67.9646 54.5647H73.3432L73.8533 47.3512H76.4458L76.9565 54.5647H82.3351L79.4685 27.4224H70.8305L67.9646 54.5647Z" fill="#006FBA"/>
<path d="M89.5616 45.063V50.1742C89.5616 50.8712 90.1105 51.0665 90.4249 51.0665C90.9369 51.0665 91.2895 50.6402 91.2895 50.1742V43.8609C91.2895 43.0077 91.132 42.0784 89.0904 42.0784H86.8532V39.0925H89.1682C90.7392 39.0925 91.2895 38.7437 91.2895 37.0757V31.6791C91.2895 31.2138 90.9376 30.7869 90.4249 30.7869C90.1105 30.7869 89.5616 30.9815 89.5616 31.6791V36.106H84.0643V32.2682C84.0643 30.3672 84.3003 27.4217 88.1474 27.4217H92.705C96.5555 27.4217 96.7894 30.3672 96.7894 32.2682V36.611C96.7894 39.5572 94.709 40.372 93.0596 40.2946V40.5659C96.7499 40.4885 96.7894 43.2798 96.7894 44.2495V49.7175C96.7894 51.6166 96.5562 54.5647 92.705 54.5647H88.1474C84.3003 54.5647 84.0643 51.6166 84.0643 49.7175V45.063H89.5616Z" fill="#006FBA"/>
<path d="M99.6782 27.4217H112.401V54.564H106.907V30.7875H105.177V54.5647H99.6782V27.4217Z" fill="#006FBA"/>
<path d="M121.112 42.3498V30.7875H121.819C122.408 30.7875 122.841 31.2906 122.841 32.1431V40.9922C122.841 41.8454 122.408 42.3498 121.819 42.3498H121.112ZM115.615 54.5647H121.112V45.3357H124.253C128.102 45.3357 128.337 42.3875 128.337 40.4892V32.2682C128.337 30.3672 128.102 27.4217 124.253 27.4217H115.616V54.5647H115.615Z" fill="#006FBA"/>
<path d="M138.232 50.1749C138.232 50.6409 137.88 51.0672 137.369 51.0672C137.053 51.0672 136.503 50.8719 136.503 50.1749V31.6798C136.503 30.9821 137.053 30.7875 137.369 30.7875C137.88 30.7875 138.232 31.2144 138.232 31.6798V50.1749ZM131.007 49.7175C131.007 51.6166 131.244 54.5647 135.091 54.5647H139.646C143.494 54.5647 143.73 51.6166 143.73 49.7175V32.2682C143.73 30.3672 143.494 27.4217 139.646 27.4217H135.091C131.244 27.4217 131.007 30.3672 131.007 32.2682V49.7175Z" fill="#006FBA"/>
<path d="M160.854 27.4217H168.001V54.564H162.503V37.5423H162.306L159.48 54.5647H155.082L152.255 37.5423H152.057V54.5647H146.561V27.4217H153.706L157.279 46.4987L160.854 27.4217Z" fill="#006FBA"/>
<path d="M49.824 16.0752C47.9185 7.81519 43.1304 1.1001 42.4709 0C41.4233 1.54225 37.6029 7.46901 35.6626 14.0544C33.544 21.395 33.235 27.9029 33.9642 34.3188C34.6908 40.7248 37.4354 47.3101 37.4354 47.3101C38.8925 50.7667 41.0781 54.4661 42.4983 56.2817C44.5841 53.6049 49.377 45.6296 50.8676 35.2071C51.6987 29.4154 51.7355 24.3418 49.824 16.0752ZM42.4709 54.2258C41.5299 52.4803 40.0701 49.1556 39.932 44.0218C39.8951 39.0528 41.9092 34.7888 42.4983 33.9051C43.0205 34.7888 44.7604 38.5028 44.9648 43.573C45.1049 48.5387 43.4394 52.4433 42.4709 54.2258ZM49.2697 30.0998C49.2 33.2525 48.8207 36.5819 48.3321 38.5656C48.5077 35.1402 48.0908 30.3083 47.2925 26.5327C46.4936 22.7559 44.2343 16.4624 42.4333 13.5368C40.7678 16.3168 38.7175 21.7696 37.6398 26.4983C36.5601 31.2343 36.5279 36.9565 36.5279 38.6762C36.2437 37.2246 35.5245 32.0696 35.729 26.8783C35.8992 22.597 36.9126 18.2032 37.4676 16.1798C39.5862 9.41901 41.9829 5.10466 42.4327 4.42488C42.8817 5.10533 45.9025 10.4244 47.4668 16.0097C49.0251 21.5988 49.3394 26.9444 49.2697 30.0998Z" fill="#006FBA"/>
<path d="M45.7121 58.2065H31.1807V67.8347C31.1948 67.8208 31.2048 67.8076 31.2182 67.795C34.6425 64.4146 40.1907 64.4146 43.6136 67.795C47.0365 71.178 47.0365 76.6593 43.6136 80.0377C43.6009 80.0516 43.5861 80.0649 43.572 80.0788C43.572 80.0788 43.572 80.0827 43.568 80.0827C43.5566 80.0953 43.5352 80.1152 43.5191 80.1277C40.1076 83.4744 35.6438 85.153 31.1807 85.153C26.7015 85.153 22.219 83.4618 18.7981 80.0913C12.776 74.1388 12.0589 64.9296 16.6547 58.2072C17.274 57.2977 17.9858 56.4339 18.7981 55.6357C22.2183 52.2573 26.7015 50.5707 31.1807 50.5707V27.4217C13.9644 27.4217 0 41.212 0 58.2065C0 75.2124 13.9644 89 31.1807 89C40.1652 89 48.2503 85.247 53.9372 79.2507V58.2065H45.7121Z" fill="#006FBA"/>
<path d="M168 58.2118H57.6316V75.174H168V58.2118Z" fill="#006FBA"/>
<path d="M64.5196 61.6055L65.3232 65.7298C65.4954 66.5665 65.5819 67.9836 65.6965 68.9481H65.7247C65.8393 68.0267 65.9545 66.4533 66.098 65.7298L66.9016 61.6055H70.3607V71.7824H67.9927V68.2107C67.9927 67.2324 68.0644 64.6244 68.1214 63.7739H68.1073L66.5718 71.7824H64.8493L63.3131 63.7739H63.2984C63.342 64.4821 63.4278 66.8213 63.4278 68.1961V71.7824H61.0598V61.6055H64.5196Z" fill="#FFFFFF"/>
<path d="M72.868 61.6055H78.6381V63.533H75.3513V65.5319H78.2936V67.4594H75.3513V69.8549H78.6381V71.7824H72.868V61.6055Z" fill="#FFFFFF"/>
<path d="M87.0891 61.6055V65.6597L88.825 61.6055H91.524L89.2419 66.0985L91.524 71.7824H88.9115L87.7633 68.2385L87.0891 69.4147V71.7824H84.7205V69.4147L84.0462 68.2385L82.8981 71.7824H80.2855L82.5677 66.0985L80.2855 61.6055H82.9839L84.7205 65.6597V61.6055H87.0891Z" fill="#FFFFFF"/>
<path d="M96.012 71.7824H93.5287V61.6055H97.1319C98.5669 61.6055 100.145 62.1158 100.145 64.7092C100.145 67.2178 98.5951 67.8135 97.1319 67.8135H96.012V71.7824ZM96.012 65.9847H96.457C97.0743 65.9847 97.6621 65.6868 97.6621 64.6807C97.6621 63.6746 97.1313 63.4337 96.4134 63.4337H96.0113V65.9847H96.012Z" fill="#FFFFFF"/>
<path d="M102.023 61.6055H107.792V63.533H104.505V65.5319H107.448V67.4594H104.505V69.8549H107.792V71.7824H102.023V61.6055Z" fill="#FFFFFF"/>
<path d="M115.683 61.6055V63.533H112.397V71.7824H109.913V61.6055H115.683Z" fill="#FFFFFF"/>
<path d="M119.599 61.6055V64.1287C119.599 65.248 119.283 66.8783 119.226 67.9975H119.24L121.336 61.6055H123.704V71.7824H121.336V69.4147C121.336 68.3239 121.681 66.6651 121.795 65.5882H121.781L119.642 71.7824H117.232V61.6055H119.599Z" fill="#FFFFFF"/>
<path d="M132.786 64.2558V68.8203C132.786 70.8471 131.767 72.0233 129.442 72.0233C127.146 72.0233 126.098 70.8471 126.098 68.8203V64.2425C126.098 62.6407 127.117 61.3791 129.456 61.3791C131.795 61.3784 132.786 62.6678 132.786 64.2558ZM128.581 64.0856V69.2446C128.581 69.8549 129.012 70.1514 129.442 70.1514C129.858 70.1514 130.303 69.8542 130.303 69.2446V64.0856C130.303 63.5051 129.858 63.2497 129.442 63.2497C129.012 63.249 128.581 63.5045 128.581 64.0856Z" fill="#FFFFFF"/>
<path d="M137.648 65.5313H139.27V61.6048H141.753V71.7817H139.27V67.4587H137.648V71.7817H135.165V61.6055H137.648V65.5313Z" fill="#FFFFFF"/>
<path d="M150.031 61.6055V63.533H146.744V71.7824H144.261V61.6055H150.031Z" fill="#FFFFFF"/>
<path d="M155.138 61.6055L157.42 71.7824H154.98L154.607 69.741H152.712L152.396 71.7824H149.928L152.166 61.6055H155.138ZM154.278 67.9128L153.617 63.4337H153.603L152.957 67.9128H154.278Z" fill="#FFFFFF"/>
<path d="M158.393 64.7092C158.393 62.5977 159.728 61.3784 161.507 61.3784C163.474 61.3784 164.579 62.64 164.579 64.0717C164.579 65.3327 164.163 65.9708 163.115 66.4242H163.143C164.19 66.8068 164.938 67.2324 164.938 69.0606C164.938 71.0728 163.617 72.0226 161.651 72.0226C160.115 72.0226 158.393 71.3568 158.393 68.7343H160.675C160.675 69.8681 161.005 70.1944 161.55 70.1944C162.196 70.1944 162.454 69.8681 162.454 68.7343C162.454 67.7851 162.153 67.4025 161.364 67.4025H161.005V65.5736H161.593C161.952 65.5736 162.34 65.1765 162.34 64.4543C162.34 63.6885 162.096 63.2073 161.507 63.2073C160.876 63.2073 160.675 63.6607 160.675 64.7092H158.393Z" fill="#FFFFFF"/>
<path d="M58.7757 78.8132V87.1241C58.7757 87.4915 58.7616 87.888 58.7469 88.2553H58.7757C58.9184 87.788 58.9613 87.4207 59.1906 86.8554L62.3963 78.8125H64.0565V88.9894H62.911V80.8757C62.911 80.3528 62.9264 79.8305 62.9399 79.3208H62.911C62.8112 79.9291 62.6966 80.5083 62.5109 80.975L59.2898 88.9894H57.6309V78.8125H58.7757V78.8132Z" fill="#006FBA"/>
<path d="M70.2521 83.1381H74.1871V78.8132H75.3325V88.9901H74.1871V84.1561H70.2521V88.9901H69.1067V78.8132H70.2521V83.1381Z" fill="#006FBA"/>
<path d="M85.9497 78.8132V84.0429L89.6997 78.8132H91.132L87.8405 83.0679L91.2318 88.9907H89.9007L87.1528 83.9582L85.9504 85.4422V88.9907H84.8063V85.4422L83.6039 83.9582L80.8559 88.9907H79.5248L82.9162 83.0679L79.6247 78.8132H81.057L84.807 84.0429V78.8132H85.9497Z" fill="#006FBA"/>
<path d="M96.5656 78.8132V87.1241C96.5656 87.4915 96.5515 87.888 96.5368 88.2553H96.5656C96.7084 87.788 96.7513 87.4207 96.9805 86.8554L100.186 78.8125H101.846V88.9894H100.701V80.8757C100.701 80.3528 100.716 79.8305 100.73 79.3208H100.701C100.601 79.9291 100.486 80.5083 100.301 80.975L97.0797 88.9894H95.4208V78.8125H96.5656V78.8132Z" fill="#006FBA"/>
<path d="M108.041 83.1381H111.977V78.8132H113.121V88.9901H111.977V84.1561H108.041V88.9901H106.897V78.8132H108.041V83.1381Z" fill="#006FBA"/>
<path d="M119.317 78.8132V87.1241C119.317 87.4915 119.302 87.888 119.288 88.2553H119.317C119.46 87.788 119.502 87.4207 119.731 86.8554L122.937 78.8125H124.597V88.9894H123.453V80.8757C123.453 80.3528 123.467 79.8305 123.482 79.3208H123.453C123.352 79.9291 123.238 80.5083 123.051 80.975L119.831 88.9894H118.171V78.8125H119.317V78.8132Z" fill="#006FBA"/>
<path d="M130.792 88.9901H129.647V78.8132H132.509C134.384 78.8132 135.616 79.6756 135.616 81.6826C135.616 84.0568 134.156 84.679 132.295 84.679H130.792V88.9901ZM130.792 83.6617H131.908C133.483 83.6617 134.427 83.4214 134.427 81.6832C134.427 80.2416 133.612 79.8319 132.238 79.8319H130.792V83.6617Z" fill="#006FBA"/>
<path d="M141.524 78.8132V87.1241C141.524 87.4915 141.509 87.888 141.496 88.2553H141.524C141.667 87.788 141.71 87.4207 141.938 86.8554L145.144 78.8125H146.804V88.9894H145.66V80.8757C145.66 80.3528 145.674 79.8305 145.689 79.3208H145.66C145.558 79.9291 145.445 80.5083 145.258 80.975L142.038 88.9894H140.378V78.8125H141.524V78.8132Z" fill="#006FBA"/>
<path d="M152.999 83.1381H156.936V78.8132H158.08V88.9901H156.936V84.1561H152.999V88.9901H151.855V78.8132H152.999V83.1381Z" fill="#006FBA"/>
<path d="M168 78.8132V79.8312H164.307V88.9901H163.163V78.8132H168Z" fill="#006FBA"/>
</g>
<defs>
<clipPath id="clip0">
<rect width="168" height="89" fill="#006FBA"/>
</clipPath>
</defs>
</svg>
