<svg width="168" height="40" fill="none" xmlns="http://www.w3.org/2000/svg" color="#325C92" class="logo__img"><path fill-rule="evenodd" clip-rule="evenodd" d="M26.251.045c0 .037-.14.089-.312.114-.171.026-.311.073-.311.105s-.14.079-.312.105c-.171.026-.312.077-.312.113 0 .036-.047.065-.105.065-.128 0-2.998.95-3.166 1.047a.581.581 0 01-.243.07.857.857 0 00-.307.098 1.912 1.912 0 01-.467.146c-.156.026-.283.077-.283.112s-.07.064-.156.064a.904.904 0 00-.342.098c-.102.054-.289.12-.415.147-.127.027-.261.074-.3.103-.037.03-.176.077-.309.106a1.883 1.883 0 00-.346.106c-.145.074-1.359.477-1.696.563-.151.04-.307.094-.347.123-.04.03-.306.124-.591.211a6.034 6.034 0 00-.64.223.54.54 0 01-.197.065 1.19 1.19 0 00-.296.094c-.12.052-.639.231-1.153.398a29.56 29.56 0 00-1.039.35 5.278 5.278 0 01-.918.292c-.18.04-.329.099-.329.132 0 .034-.07.061-.155.061a.904.904 0 00-.342.098c-.102.054-.29.12-.416.148-.126.027-.26.073-.299.103-.038.03-.178.077-.312.105a1.094 1.094 0 00-.311.104c-.038.03-.179.077-.312.105a1.095 1.095 0 00-.312.105c-.038.03-.177.077-.309.105a1.799 1.799 0 00-.346.108c-.104.054-.588.22-1.007.345-.418.125-.903.291-1.004.345-.09.048-.106.663-.122 4.778l-.018 4.723H3.09c-2.676 0-3.01.012-3.047.11C.019 16.5 0 21.827 0 28.276V40h2.078l.017-10.736.018-10.736H6.06l.017 10.736L6.096 40h20.363v-6.005c0-4.113.023-6.005.072-6.005.04 0 .156.059.26.13.46.322.857.568.918.568.036 0 .066.026.066.058 0 .033.07.097.156.143.418.225 1.539.943 1.564 1.002.013.03.065.054.116.054.051 0 .142.05.202.11.097.097.11.65.11 5.027V40H32V28.922l-.511-.327c-.281-.18-.532-.326-.557-.326-.025 0-.084-.033-.13-.074-.123-.109-1.146-.764-1.192-.764-.022 0-.078-.033-.124-.073-.182-.16-2.262-1.463-2.336-1.463a.095.095 0 01-.08-.053c-.034-.079-.457-.366-.539-.366-.05 0-.077-3.99-.09-12.72-.013-10.102-.035-12.727-.103-12.75-.048-.016-.087.001-.087.039zm-1.876 13.473c-.003 5.866-.021 10.625-.041 10.574-.02-.05-.104-.121-.185-.158a2.981 2.981 0 01-.334-.188 38.07 38.07 0 00-.693-.43 7.083 7.083 0 01-.542-.348c-.039-.046-.29-.195-.56-.332-.143-.073-.214-.074-.362-.005-.102.048-.185.11-.186.139 0 .029-.045.052-.1.052a.34.34 0 00-.192.088c-.088.08-.23.17-.574.36a1.066 1.066 0 00-.173.112 1.26 1.26 0 01-.208.125c-.27.138-.46.255-.581.356-.102.086-.111-.22-.111-3.649v-3.742l-1.923-.038a713.26 713.26 0 00-5.68-.073l-3.757-.035v-3.9c0-3.04.02-3.916.087-3.966.047-.036.46-.187.917-.336.458-.149.863-.293.9-.321.039-.028.187-.073.33-.1.143-.027.26-.073.26-.103s.14-.075.311-.101c.172-.026.312-.073.312-.105s.113-.08.251-.105c.138-.027.302-.076.364-.11.098-.055 1.901-.675 2.779-.956.171-.055.36-.125.418-.156.058-.03.206-.078.328-.105.122-.027.24-.078.262-.113.021-.036.107-.065.19-.065a.898.898 0 00.339-.098c.102-.054.288-.12.413-.148.125-.028.275-.078.333-.11.059-.033.637-.233 1.284-.445.648-.212 1.228-.415 1.29-.45.062-.037.226-.087.364-.113.138-.027.25-.076.25-.11s.07-.062.157-.062a.93.93 0 00.349-.103c.106-.056.301-.122.434-.147.132-.025.255-.07.274-.101.019-.03.159-.077.31-.103.153-.026.295-.076.316-.11.022-.036.087-.064.146-.064s.205-.044.325-.098c.22-.098.734-.277 1.118-.39.115-.034.333-.11.485-.168a8.15 8.15 0 01.295-.11c.01-.001.015 4.797.012 10.664zm-6.992 8.344l-.002 3.37-.638.382c-.352.21-.65.407-.662.436-.013.03-.054.054-.092.054s-.355.175-.704.388c-.35.214-.697.426-.773.471-.075.046-.346.217-.602.38-.256.164-.481.297-.5.297-.02 0-.174.095-.343.21-.17.115-.34.21-.38.21-.039 0-.113.039-.165.087-.088.081-.165.13-.557.349a.812.812 0 00-.206.157c-.028.038-.052 2.136-.052 4.661l-.001 4.591H8.173V18.493h9.212l-.002 3.37zm4.585 3.18c.013.029.444.315.958.635s1.052.662 1.195.759l.26.176v11.293h-4.848v-5.778l.001-5.778.525-.315c.29-.172.608-.369.71-.435.1-.067.23-.144.287-.171a4.23 4.23 0 00.381-.243c.274-.191.487-.249.531-.144zm-4.583 7.8v5.063h-3.532V29.9l.283-.187c.156-.103.312-.187.346-.187.035 0 .064-.025.064-.055s.085-.092.19-.138a3.1 3.1 0 00.398-.224c.115-.077.278-.177.364-.222.086-.045.156-.108.156-.14 0-.033.035-.06.077-.06.096 0 .918-.495.95-.572.013-.03.06-.056.104-.057.044-.001.159-.063.254-.138.095-.075.212-.138.26-.138.068-.002.086 1.056.086 5.06z" fill="currentColor"></path><path d="M53.023 21.449a3.557 3.557 0 01-2.167.731c-1.866 0-3.159-1.306-3.159-3.212 0-1.984 1.28-3.211 2.977-3.211.913 0 1.514.248 2.062.614l.718-1.188c-.6-.549-1.592-.927-2.78-.927-3.016 0-4.674 2.088-4.674 4.712 0 2.846 1.92 4.713 4.713 4.713 1.188 0 2.35-.418 2.924-1.031l-.613-1.201zm1.205-5.548h2.964v7.637h1.605V15.9h2.964v-1.502h-7.533v1.502zm10.662 7.637v-3.303c.391.039.914.039 1.188.039 2.18 0 3.342-1.41 3.342-2.963 0-1.502-.849-2.938-3.538-2.938-.64 0-2.089.026-2.598.026v9.139h1.606zm1.149-7.663c1.096 0 1.684.47 1.684 1.423 0 1.018-.744 1.475-1.697 1.475-.366 0-.758-.026-1.136-.066v-2.806c.43-.013.822-.026 1.149-.026zm4.69 3.093c0 2.846 2.037 4.713 4.752 4.713 2.716 0 4.765-1.971 4.765-4.713 0-2.846-2.05-4.712-4.765-4.712-2.806 0-4.752 2.062-4.752 4.712zm1.697 0c0-1.893 1.306-3.211 3.055-3.211 1.724 0 3.068 1.318 3.068 3.211 0 1.802-1.149 3.212-3.068 3.212-1.71 0-3.054-1.384-3.054-3.212zm11.219 4.57l4.791-6.489v6.489h1.606v-9.139h-1.41l-4.791 6.502v-6.502h-1.606v9.139h1.41zm.04-11.358c.09 1.11 1.044 1.867 2.61 1.867 1.436 0 2.507-.744 2.546-1.867H87.34c-.053.561-.457.757-1.045.757-.653 0-1.005-.248-1.11-.757h-1.5zm9.02 11.358h1.606v-4.713l3.733 4.713h2.037l-3.995-4.883 3.76-4.256h-1.932l-3.603 4.335v-4.335h-1.606v9.139zm8.223-4.57c0 2.846 2.037 4.713 4.752 4.713s4.765-1.971 4.765-4.713c0-2.846-2.05-4.712-4.765-4.712-2.807 0-4.752 2.062-4.752 4.712zm1.697 0c0-1.893 1.306-3.211 3.055-3.211 1.723 0 3.068 1.318 3.068 3.211 0 1.802-1.149 3.212-3.068 3.212-1.71 0-3.055-1.384-3.055-3.212zm9.809 4.57h1.606V16.97l2.911 4.021h.235l2.885-4.06v6.606h1.593v-9.139h-1.515l-2.976 4.27-3.12-4.27h-1.619v9.139zm17.576 0h1.606v-9.139h-7.284v9.139h1.605V15.9h4.073v7.637zm9.66 0h1.593v-9.139h-5.757l-.131 1.828c-.404 5.51-1.331 5.81-2.036 5.718l-.039 1.593c1.801.26 2.989-.6 3.525-5.914l.182-1.723h2.663v7.637zm4.25 0h5.418v-1.502h-3.812v-2.363h3.29v-1.5h-3.29V15.9h3.681v-1.502h-5.287v9.139zm7.64 0h1.605v-4.713l3.734 4.713h2.037l-3.995-4.883 3.76-4.256h-1.932l-3.604 4.335v-4.335h-1.605v9.139zm15.246-2.09a3.556 3.556 0 01-2.167.732c-1.867 0-3.159-1.306-3.159-3.212 0-1.984 1.279-3.211 2.976-3.211.914 0 1.515.248 2.063.614l.718-1.188c-.6-.549-1.593-.927-2.781-.927-3.015 0-4.673 2.088-4.673 4.712 0 2.846 1.919 4.713 4.713 4.713 1.188 0 2.349-.418 2.924-1.031l-.614-1.201zM48.285 39.857v-3.303c.391.04.914.04 1.188.04 2.18 0 3.342-1.41 3.342-2.964 0-1.501-.849-2.937-3.538-2.937-.64 0-2.089.026-2.598.026v9.138h1.606zm1.148-7.663c1.097 0 1.684.47 1.684 1.423 0 1.018-.744 1.475-1.697 1.475-.365 0-.757-.026-1.135-.065v-2.807c.43-.013.822-.026 1.148-.026zm4.691 3.094c0 2.846 2.037 4.713 4.752 4.713s4.765-1.971 4.765-4.713c0-2.846-2.05-4.713-4.765-4.713-2.807 0-4.752 2.063-4.752 4.713zm1.697 0c0-1.893 1.306-3.211 3.055-3.211 1.723 0 3.068 1.318 3.068 3.211 0 1.802-1.149 3.212-3.068 3.212-1.71 0-3.055-1.384-3.055-3.212zm16.154 2.48a3.556 3.556 0 01-2.167.732c-1.867 0-3.16-1.306-3.16-3.212 0-1.984 1.28-3.211 2.977-3.211.913 0 1.514.248 2.062.613l.718-1.188c-.6-.548-1.592-.927-2.78-.927-3.016 0-4.674 2.09-4.674 4.713 0 2.846 1.92 4.713 4.713 4.713 1.188 0 2.35-.418 2.924-1.031l-.613-1.202zm8.685 0a3.557 3.557 0 01-2.167.732c-1.867 0-3.16-1.306-3.16-3.212 0-1.984 1.28-3.211 2.977-3.211.914 0 1.514.248 2.062.613l.719-1.188c-.601-.548-1.593-.927-2.781-.927-3.016 0-4.674 2.09-4.674 4.713 0 2.846 1.92 4.713 4.713 4.713 1.188 0 2.35-.418 2.924-1.031l-.613-1.202zm3.75 2.09l4.791-6.489v6.488h1.606v-9.138h-1.41l-4.791 6.501v-6.501H83v9.138h1.41zm10.47 0l4.791-6.489v6.488h1.606v-9.138h-1.41l-4.791 6.501v-6.501H93.47v9.138h1.41z" fill="currentColor"></path></svg>