<svg width="201" height="60" viewBox="0 0 201 60" fill="none" xmlns="http://www.w3.org/2000/svg">
<path d="M96.5156 25.2607H88.8545V43H84.5479V21.6719H96.5156V25.2607ZM109.626 21.6719H113.933V43H109.626V28.8789L103.342 43H99.0205V21.6719H103.342V35.8076L109.626 21.6719ZM131.833 35.8955C131.726 38.3271 131.042 40.168 129.782 41.418C128.522 42.668 126.745 43.293 124.45 43.293C122.038 43.293 120.188 42.502 118.898 40.9199C117.619 39.3281 116.979 37.0625 116.979 34.123V30.5342C116.979 27.6045 117.644 25.3486 118.972 23.7666C120.3 22.1748 122.146 21.3789 124.509 21.3789C126.833 21.3789 128.596 22.0283 129.797 23.3271C131.008 24.626 131.696 26.4912 131.862 28.9229H127.541C127.502 27.4189 127.268 26.3838 126.838 25.8174C126.418 25.2412 125.642 24.9531 124.509 24.9531C123.356 24.9531 122.541 25.3584 122.062 26.1689C121.584 26.9697 121.33 28.293 121.301 30.1387V34.167C121.301 36.2861 121.535 37.7412 122.004 38.5322C122.482 39.3232 123.298 39.7188 124.45 39.7188C125.583 39.7188 126.364 39.4453 126.794 38.8984C127.224 38.3418 127.468 37.3408 127.526 35.8955H131.833ZM157.336 34.3428H155.3V43H150.993V34.3428H148.884L145.529 43H140.168L145.544 31.3105L140.402 21.6719H145.764L149.235 30.2412H150.993V21.6719H155.3V30.2412H156.999L160.354 21.6719H165.7L160.676 31.2666L165.935 43H160.573L157.336 34.3428ZM174.123 34.2988H172.248V43H167.941V21.6719H172.248V30.1973H173.698L177.404 21.6719H182.648L177.434 31.6035L183.234 43H178.107L174.123 34.2988ZM191.525 28.9961L194.396 21.6719H199.333L194.323 32.248L199.45 43H194.455L191.525 35.5439L188.61 43H183.615L188.742 32.248L183.718 21.6719H188.654L191.525 28.9961Z" fill="#3D424D"/>
<g clip-path="url(#clip0_798_104646)">
<path d="M11.5947 24.5482V20.7866H7.63338V24.5482H0.790039V60H29.1436V24.5482H11.5947ZM26.0685 56.2384H13.8267V45.7235H7.62071V56.2384H4.68783V32.0714H26.0685V56.2384Z" fill="#006BBD"/>
<path d="M23.1484 45.7235H16.9424V53.2442H23.1484V45.7235Z" fill="#006BBD"/>
<path d="M23.1484 35.2061H16.9424V42.7267H23.1484V35.2061Z" fill="#006BBD"/>
<path d="M13.8393 35.2061H7.6333V42.7267H13.8393V35.2061Z" fill="#006BBD"/>
<path d="M13.8394 -0.00752258V22.4041H33.7651V28.6433H31.5127V32.0639H33.7651V37.7188H31.5127V41.1444H33.7651V46.7993H31.5127V50.2198H33.7651V55.6315H31.4137V60H48.1323V-0.00752258H13.8394ZM24.5373 19.3998H18.9027V13.8326H24.5373V19.3998ZM24.5373 10.372H18.9027V4.8023H24.5373V10.372ZM33.8133 19.3998H28.1787V13.8326H33.8184L33.8133 19.3998ZM33.8133 10.372H28.1787V4.8023H33.8184L33.8133 10.372ZM43.0842 55.5111H37.4445V49.944H43.0842V55.5111ZM43.0842 46.4833H37.4445V40.9161H43.0842V46.4833ZM43.0842 37.4555H37.4445V31.8883H43.0842V37.4555ZM43.0842 28.4276H37.4445V22.8605H43.0842V28.4276ZM43.0842 19.3998H37.4445V13.8326H43.0842V19.3998ZM43.0842 10.372H37.4445V4.8023H43.0842V10.372Z" fill="#016BBD"/>
<path d="M50.7197 24.794H55.6332V32.0714H50.7197" fill="#016BBC"/>
<path d="M50.7197 35.3264H55.6332V42.6039H50.7197" fill="#016BBC"/>
<path d="M50.7197 45.8614H55.6332V53.1388H50.7197" fill="#016BBC"/>
<path d="M64.7901 19.4073V20.7866H62.5911V60H50.6387V56.2384H58.8405V20.7866H50.6387V8.14763H53.3887L64.7901 19.4073Z" fill="#016BBC"/>
</g>
<defs>
<clipPath id="clip0_798_104646">
<rect width="64" height="60" fill="white" transform="translate(0.790039)"/>
</clipPath>
</defs>
</svg>
